<?xml version="1.0" encoding="UTF-8"?>
<svg width="16px" height="20px" viewBox="0 0 16 20" version="1.1" xmlns="http://www.w3.org/2000/svg" xmlns:xlink="http://www.w3.org/1999/xlink">
    <defs>
        <linearGradient x1="13.3614473%" y1="84.8673061%" x2="50.8303531%" y2="48.404341%" id="linearGradient-1">
            <stop stop-color="#A90034" offset="0%"></stop>
            <stop stop-color="#BB0033" offset="27.17%"></stop>
            <stop stop-color="#D30032" offset="72.26%"></stop>
            <stop stop-color="#DC0032" offset="100%"></stop>
        </linearGradient>
    </defs>
    <g id="Page-1" stroke="none" stroke-width="1" fill="none" fill-rule="evenodd">
        <g id="DPDG_logo_redgrad_rgb_responsive" fill="url(#linearGradient-1)" fill-rule="nonzero">
            <path d="M11.1152296,9.10115463 C11.0398392,9.14507763 10.9218944,9.14155204 10.8482709,9.09616004 L10.4153649,8.8393794 C10.3801729,8.81763825 10.3477786,8.78267613 10.3233356,8.74080972 C10.3220104,8.73831242 10.3203907,8.73596203 10.3190654,8.73346473 C10.291383,8.68851343 10.2756276,8.64091794 10.2740079,8.59743563 L10.2629644,8.09386354 C10.2597249,8.00895552 10.315826,7.90553815 10.3913637,7.86161515 L15.5955122,4.83695078 L8.29280035,0.866252484 C8.21240352,0.821594982 8.10623848,0.800294529 8.00022068,0.8 C7.89405564,0.8 7.78774335,0.821888782 7.70719928,0.866252484 L0.404340213,4.83709768 L8.58538001,9.58842086 C8.66121218,9.62984657 8.71878573,9.72812245 8.71878573,9.81655606 L8.71878573,16.7480174 C8.71878573,16.8351289 8.65650028,16.9350207 8.58007912,16.9757119 L8.13981078,17.2195653 C8.10314629,17.2389561 8.05676351,17.2492391 8.00802477,17.2492391 C8.00522708,17.2492391 8.00228214,17.2492391 7.99963169,17.2492391 C7.94677004,17.2504143 7.89758957,17.2399844 7.85915812,17.2195653 L7.41741731,16.975565 C7.34232137,16.9357551 7.28106664,16.8352758 7.28106664,16.7480174 L7.28106664,10.5689762 C7.27709098,10.5237311 7.24396042,10.4684968 7.20759042,10.447784 L3.45556916e-15,6.26187765 L3.45556916e-15,14.4606425 C3.45556916e-15,14.6441202 0.129577429,14.8703457 0.288456874,14.9631863 L7.71176393,19.3308075 C7.79113003,19.3770809 7.89567536,19.400291 8.00007344,19.4 C8.10461876,19.3997034 8.20901684,19.3778154 8.28838294,19.3308075 L15.7125735,14.9631863 C15.8708639,14.8693174 16.000294,14.644414 16,14.4606425 L16,6.26187765 L11.1152296,9.10115463 Z" id="Path"></path>
        </g>
    </g>
</svg>
